<?xml version="1.0" encoding="utf-8" standalone="no"?>
<!DOCTYPE svg PUBLIC "-//W3C//DTD SVG 1.1//EN"
  "http://www.w3.org/Graphics/SVG/1.1/DTD/svg11.dtd">
<!-- Created with matplotlib (https://matplotlib.org/) -->
<svg height="165.6pt" version="1.1" viewBox="0 0 230.4 165.6" width="230.4pt" xmlns="http://www.w3.org/2000/svg" xmlns:xlink="http://www.w3.org/1999/xlink">
 <defs>
  <style type="text/css">
*{stroke-linecap:butt;stroke-linejoin:round;}
  </style>
 </defs>
 <g id="figure_1">
  <g id="patch_1">
   <path d="M 0 165.6 
L 230.4 165.6 
L 230.4 0 
L 0 0 
z
" style="fill:#ffffff;"/>
  </g>
  <g id="axes_1">
   <g id="patch_2">
    <path d="M 47.416563 130.78625 
L 210.855856 130.78625 
L 210.855856 20.759063 
L 47.416563 20.759063 
z
" style="fill:#ffffff;"/>
   </g>
   <g id="matplotlib.axis_1">
    <g id="xtick_1">
     <g id="line2d_1">
      <defs>
       <path d="M 0 0 
L 0 3.5 
" id="mb8e1ce18b8" style="stroke:#262626;stroke-width:0.8;"/>
      </defs>
      <g>
       <use style="fill:#262626;stroke:#262626;stroke-width:0.8;" x="51.682422" xlink:href="#mb8e1ce18b8" y="130.78625"/>
      </g>
     </g>
     <g id="text_1">
      <!-- 6.0 -->
      <defs>
       <path d="M 33.015625 40.375 
Q 26.375 40.375 22.484375 35.828125 
Q 18.609375 31.296875 18.609375 23.390625 
Q 18.609375 15.53125 22.484375 10.953125 
Q 26.375 6.390625 33.015625 6.390625 
Q 39.65625 6.390625 43.53125 10.953125 
Q 47.40625 15.53125 47.40625 23.390625 
Q 47.40625 31.296875 43.53125 35.828125 
Q 39.65625 40.375 33.015625 40.375 
z
M 52.59375 71.296875 
L 52.59375 62.3125 
Q 48.875 64.0625 45.09375 64.984375 
Q 41.3125 65.921875 37.59375 65.921875 
Q 27.828125 65.921875 22.671875 59.328125 
Q 17.53125 52.734375 16.796875 39.40625 
Q 19.671875 43.65625 24.015625 45.921875 
Q 28.375 48.1875 33.59375 48.1875 
Q 44.578125 48.1875 50.953125 41.515625 
Q 57.328125 34.859375 57.328125 23.390625 
Q 57.328125 12.15625 50.6875 5.359375 
Q 44.046875 -1.421875 33.015625 -1.421875 
Q 20.359375 -1.421875 13.671875 8.265625 
Q 6.984375 17.96875 6.984375 36.375 
Q 6.984375 53.65625 15.1875 63.9375 
Q 23.390625 74.21875 37.203125 74.21875 
Q 40.921875 74.21875 44.703125 73.484375 
Q 48.484375 72.75 52.59375 71.296875 
z
" id="DejaVuSans-54"/>
       <path d="M 10.6875 12.40625 
L 21 12.40625 
L 21 0 
L 10.6875 0 
z
" id="DejaVuSans-46"/>
       <path d="M 31.78125 66.40625 
Q 24.171875 66.40625 20.328125 58.90625 
Q 16.5 51.421875 16.5 36.375 
Q 16.5 21.390625 20.328125 13.890625 
Q 24.171875 6.390625 31.78125 6.390625 
Q 39.453125 6.390625 43.28125 13.890625 
Q 47.125 21.390625 47.125 36.375 
Q 47.125 51.421875 43.28125 58.90625 
Q 39.453125 66.40625 31.78125 66.40625 
z
M 31.78125 74.21875 
Q 44.046875 74.21875 50.515625 64.515625 
Q 56.984375 54.828125 56.984375 36.375 
Q 56.984375 17.96875 50.515625 8.265625 
Q 44.046875 -1.421875 31.78125 -1.421875 
Q 19.53125 -1.421875 13.0625 8.265625 
Q 6.59375 17.96875 6.59375 36.375 
Q 6.59375 54.828125 13.0625 64.515625 
Q 19.53125 74.21875 31.78125 74.21875 
z
" id="DejaVuSans-48"/>
      </defs>
      <g style="fill:#262626;" transform="translate(42.140547 146.904375)scale(0.12 -0.12)">
       <use xlink:href="#DejaVuSans-54"/>
       <use x="63.623047" xlink:href="#DejaVuSans-46"/>
       <use x="95.410156" xlink:href="#DejaVuSans-48"/>
      </g>
     </g>
    </g>
    <g id="xtick_2">
     <g id="line2d_2">
      <g>
       <use style="fill:#262626;stroke:#262626;stroke-width:0.8;" x="102.66969" xlink:href="#mb8e1ce18b8" y="130.78625"/>
      </g>
     </g>
     <g id="text_2">
      <!-- 6.5 -->
      <defs>
       <path d="M 10.796875 72.90625 
L 49.515625 72.90625 
L 49.515625 64.59375 
L 19.828125 64.59375 
L 19.828125 46.734375 
Q 21.96875 47.46875 24.109375 47.828125 
Q 26.265625 48.1875 28.421875 48.1875 
Q 40.625 48.1875 47.75 41.5 
Q 54.890625 34.8125 54.890625 23.390625 
Q 54.890625 11.625 47.5625 5.09375 
Q 40.234375 -1.421875 26.90625 -1.421875 
Q 22.3125 -1.421875 17.546875 -0.640625 
Q 12.796875 0.140625 7.71875 1.703125 
L 7.71875 11.625 
Q 12.109375 9.234375 16.796875 8.0625 
Q 21.484375 6.890625 26.703125 6.890625 
Q 35.15625 6.890625 40.078125 11.328125 
Q 45.015625 15.765625 45.015625 23.390625 
Q 45.015625 31 40.078125 35.4375 
Q 35.15625 39.890625 26.703125 39.890625 
Q 22.75 39.890625 18.8125 39.015625 
Q 14.890625 38.140625 10.796875 36.28125 
z
" id="DejaVuSans-53"/>
      </defs>
      <g style="fill:#262626;" transform="translate(93.127815 146.904375)scale(0.12 -0.12)">
       <use xlink:href="#DejaVuSans-54"/>
       <use x="63.623047" xlink:href="#DejaVuSans-46"/>
       <use x="95.410156" xlink:href="#DejaVuSans-53"/>
      </g>
     </g>
    </g>
    <g id="xtick_3">
     <g id="line2d_3">
      <g>
       <use style="fill:#262626;stroke:#262626;stroke-width:0.8;" x="153.656957" xlink:href="#mb8e1ce18b8" y="130.78625"/>
      </g>
     </g>
     <g id="text_3">
      <!-- 7.0 -->
      <defs>
       <path d="M 8.203125 72.90625 
L 55.078125 72.90625 
L 55.078125 68.703125 
L 28.609375 0 
L 18.3125 0 
L 43.21875 64.59375 
L 8.203125 64.59375 
z
" id="DejaVuSans-55"/>
      </defs>
      <g style="fill:#262626;" transform="translate(144.115082 146.904375)scale(0.12 -0.12)">
       <use xlink:href="#DejaVuSans-55"/>
       <use x="63.623047" xlink:href="#DejaVuSans-46"/>
       <use x="95.410156" xlink:href="#DejaVuSans-48"/>
      </g>
     </g>
    </g>
    <g id="xtick_4">
     <g id="line2d_4">
      <g>
       <use style="fill:#262626;stroke:#262626;stroke-width:0.8;" x="204.644225" xlink:href="#mb8e1ce18b8" y="130.78625"/>
      </g>
     </g>
     <g id="text_4">
      <!-- 7.5 -->
      <g style="fill:#262626;" transform="translate(195.10235 146.904375)scale(0.12 -0.12)">
       <use xlink:href="#DejaVuSans-55"/>
       <use x="63.623047" xlink:href="#DejaVuSans-46"/>
       <use x="95.410156" xlink:href="#DejaVuSans-53"/>
      </g>
     </g>
    </g>
   </g>
   <g id="matplotlib.axis_2">
    <g id="ytick_1">
     <g id="line2d_5">
      <defs>
       <path d="M 0 0 
L -3.5 0 
" id="m29d085bf88" style="stroke:#262626;stroke-width:0.8;"/>
      </defs>
      <g>
       <use style="fill:#262626;stroke:#262626;stroke-width:0.8;" x="47.416563" xlink:href="#m29d085bf88" y="130.78625"/>
      </g>
     </g>
     <g id="text_5">
      <!-- 0 -->
      <g style="fill:#262626;" transform="translate(32.781563 135.345313)scale(0.12 -0.12)">
       <use xlink:href="#DejaVuSans-48"/>
      </g>
     </g>
    </g>
    <g id="ytick_2">
     <g id="line2d_6">
      <g>
       <use style="fill:#262626;stroke:#262626;stroke-width:0.8;" x="47.416563" xlink:href="#m29d085bf88" y="103.279453"/>
      </g>
     </g>
     <g id="text_6">
      <!-- 1 -->
      <defs>
       <path d="M 12.40625 8.296875 
L 28.515625 8.296875 
L 28.515625 63.921875 
L 10.984375 60.40625 
L 10.984375 69.390625 
L 28.421875 72.90625 
L 38.28125 72.90625 
L 38.28125 8.296875 
L 54.390625 8.296875 
L 54.390625 0 
L 12.40625 0 
z
" id="DejaVuSans-49"/>
      </defs>
      <g style="fill:#262626;" transform="translate(32.781563 107.838516)scale(0.12 -0.12)">
       <use xlink:href="#DejaVuSans-49"/>
      </g>
     </g>
    </g>
    <g id="ytick_3">
     <g id="line2d_7">
      <g>
       <use style="fill:#262626;stroke:#262626;stroke-width:0.8;" x="47.416563" xlink:href="#m29d085bf88" y="75.772656"/>
      </g>
     </g>
     <g id="text_7">
      <!-- 2 -->
      <defs>
       <path d="M 19.1875 8.296875 
L 53.609375 8.296875 
L 53.609375 0 
L 7.328125 0 
L 7.328125 8.296875 
Q 12.9375 14.109375 22.625 23.890625 
Q 32.328125 33.6875 34.8125 36.53125 
Q 39.546875 41.84375 41.421875 45.53125 
Q 43.3125 49.21875 43.3125 52.78125 
Q 43.3125 58.59375 39.234375 62.25 
Q 35.15625 65.921875 28.609375 65.921875 
Q 23.96875 65.921875 18.8125 64.3125 
Q 13.671875 62.703125 7.8125 59.421875 
L 7.8125 69.390625 
Q 13.765625 71.78125 18.9375 73 
Q 24.125 74.21875 28.421875 74.21875 
Q 39.75 74.21875 46.484375 68.546875 
Q 53.21875 62.890625 53.21875 53.421875 
Q 53.21875 48.921875 51.53125 44.890625 
Q 49.859375 40.875 45.40625 35.40625 
Q 44.1875 33.984375 37.640625 27.21875 
Q 31.109375 20.453125 19.1875 8.296875 
z
" id="DejaVuSans-50"/>
      </defs>
      <g style="fill:#262626;" transform="translate(32.781563 80.331719)scale(0.12 -0.12)">
       <use xlink:href="#DejaVuSans-50"/>
      </g>
     </g>
    </g>
    <g id="ytick_4">
     <g id="line2d_8">
      <g>
       <use style="fill:#262626;stroke:#262626;stroke-width:0.8;" x="47.416563" xlink:href="#m29d085bf88" y="48.265859"/>
      </g>
     </g>
     <g id="text_8">
      <!-- 3 -->
      <defs>
       <path d="M 40.578125 39.3125 
Q 47.65625 37.796875 51.625 33 
Q 55.609375 28.21875 55.609375 21.1875 
Q 55.609375 10.40625 48.1875 4.484375 
Q 40.765625 -1.421875 27.09375 -1.421875 
Q 22.515625 -1.421875 17.65625 -0.515625 
Q 12.796875 0.390625 7.625 2.203125 
L 7.625 11.71875 
Q 11.71875 9.328125 16.59375 8.109375 
Q 21.484375 6.890625 26.8125 6.890625 
Q 36.078125 6.890625 40.9375 10.546875 
Q 45.796875 14.203125 45.796875 21.1875 
Q 45.796875 27.640625 41.28125 31.265625 
Q 36.765625 34.90625 28.71875 34.90625 
L 20.21875 34.90625 
L 20.21875 43.015625 
L 29.109375 43.015625 
Q 36.375 43.015625 40.234375 45.921875 
Q 44.09375 48.828125 44.09375 54.296875 
Q 44.09375 59.90625 40.109375 62.90625 
Q 36.140625 65.921875 28.71875 65.921875 
Q 24.65625 65.921875 20.015625 65.03125 
Q 15.375 64.15625 9.8125 62.3125 
L 9.8125 71.09375 
Q 15.4375 72.65625 20.34375 73.4375 
Q 25.25 74.21875 29.59375 74.21875 
Q 40.828125 74.21875 47.359375 69.109375 
Q 53.90625 64.015625 53.90625 55.328125 
Q 53.90625 49.265625 50.4375 45.09375 
Q 46.96875 40.921875 40.578125 39.3125 
z
" id="DejaVuSans-51"/>
      </defs>
      <g style="fill:#262626;" transform="translate(32.781563 52.824922)scale(0.12 -0.12)">
       <use xlink:href="#DejaVuSans-51"/>
      </g>
     </g>
    </g>
    <g id="ytick_5">
     <g id="line2d_9">
      <g>
       <use style="fill:#262626;stroke:#262626;stroke-width:0.8;" x="47.416563" xlink:href="#m29d085bf88" y="20.759063"/>
      </g>
     </g>
     <g id="text_9">
      <!-- 4 -->
      <defs>
       <path d="M 37.796875 64.3125 
L 12.890625 25.390625 
L 37.796875 25.390625 
z
M 35.203125 72.90625 
L 47.609375 72.90625 
L 47.609375 25.390625 
L 58.015625 25.390625 
L 58.015625 17.1875 
L 47.609375 17.1875 
L 47.609375 0 
L 37.796875 0 
L 37.796875 17.1875 
L 4.890625 17.1875 
L 4.890625 26.703125 
z
" id="DejaVuSans-52"/>
      </defs>
      <g style="fill:#262626;" transform="translate(32.781563 25.318125)scale(0.12 -0.12)">
       <use xlink:href="#DejaVuSans-52"/>
      </g>
     </g>
    </g>
    <g id="text_10">
     <!-- Density -->
     <defs>
      <path d="M 19.671875 64.796875 
L 19.671875 8.109375 
L 31.59375 8.109375 
Q 46.6875 8.109375 53.6875 14.9375 
Q 60.6875 21.78125 60.6875 36.53125 
Q 60.6875 51.171875 53.6875 57.984375 
Q 46.6875 64.796875 31.59375 64.796875 
z
M 9.8125 72.90625 
L 30.078125 72.90625 
Q 51.265625 72.90625 61.171875 64.09375 
Q 71.09375 55.28125 71.09375 36.53125 
Q 71.09375 17.671875 61.125 8.828125 
Q 51.171875 0 30.078125 0 
L 9.8125 0 
z
" id="DejaVuSans-68"/>
      <path d="M 56.203125 29.59375 
L 56.203125 25.203125 
L 14.890625 25.203125 
Q 15.484375 15.921875 20.484375 11.0625 
Q 25.484375 6.203125 34.421875 6.203125 
Q 39.59375 6.203125 44.453125 7.46875 
Q 49.3125 8.734375 54.109375 11.28125 
L 54.109375 2.78125 
Q 49.265625 0.734375 44.1875 -0.34375 
Q 39.109375 -1.421875 33.890625 -1.421875 
Q 20.796875 -1.421875 13.15625 6.1875 
Q 5.515625 13.8125 5.515625 26.8125 
Q 5.515625 40.234375 12.765625 48.109375 
Q 20.015625 56 32.328125 56 
Q 43.359375 56 49.78125 48.890625 
Q 56.203125 41.796875 56.203125 29.59375 
z
M 47.21875 32.234375 
Q 47.125 39.59375 43.09375 43.984375 
Q 39.0625 48.390625 32.421875 48.390625 
Q 24.90625 48.390625 20.390625 44.140625 
Q 15.875 39.890625 15.1875 32.171875 
z
" id="DejaVuSans-101"/>
      <path d="M 54.890625 33.015625 
L 54.890625 0 
L 45.90625 0 
L 45.90625 32.71875 
Q 45.90625 40.484375 42.875 44.328125 
Q 39.84375 48.1875 33.796875 48.1875 
Q 26.515625 48.1875 22.3125 43.546875 
Q 18.109375 38.921875 18.109375 30.90625 
L 18.109375 0 
L 9.078125 0 
L 9.078125 54.6875 
L 18.109375 54.6875 
L 18.109375 46.1875 
Q 21.34375 51.125 25.703125 53.5625 
Q 30.078125 56 35.796875 56 
Q 45.21875 56 50.046875 50.171875 
Q 54.890625 44.34375 54.890625 33.015625 
z
" id="DejaVuSans-110"/>
      <path d="M 44.28125 53.078125 
L 44.28125 44.578125 
Q 40.484375 46.53125 36.375 47.5 
Q 32.28125 48.484375 27.875 48.484375 
Q 21.1875 48.484375 17.84375 46.4375 
Q 14.5 44.390625 14.5 40.28125 
Q 14.5 37.15625 16.890625 35.375 
Q 19.28125 33.59375 26.515625 31.984375 
L 29.59375 31.296875 
Q 39.15625 29.25 43.1875 25.515625 
Q 47.21875 21.78125 47.21875 15.09375 
Q 47.21875 7.46875 41.1875 3.015625 
Q 35.15625 -1.421875 24.609375 -1.421875 
Q 20.21875 -1.421875 15.453125 -0.5625 
Q 10.6875 0.296875 5.421875 2 
L 5.421875 11.28125 
Q 10.40625 8.6875 15.234375 7.390625 
Q 20.0625 6.109375 24.8125 6.109375 
Q 31.15625 6.109375 34.5625 8.28125 
Q 37.984375 10.453125 37.984375 14.40625 
Q 37.984375 18.0625 35.515625 20.015625 
Q 33.0625 21.96875 24.703125 23.78125 
L 21.578125 24.515625 
Q 13.234375 26.265625 9.515625 29.90625 
Q 5.8125 33.546875 5.8125 39.890625 
Q 5.8125 47.609375 11.28125 51.796875 
Q 16.75 56 26.8125 56 
Q 31.78125 56 36.171875 55.265625 
Q 40.578125 54.546875 44.28125 53.078125 
z
" id="DejaVuSans-115"/>
      <path d="M 9.421875 54.6875 
L 18.40625 54.6875 
L 18.40625 0 
L 9.421875 0 
z
M 9.421875 75.984375 
L 18.40625 75.984375 
L 18.40625 64.59375 
L 9.421875 64.59375 
z
" id="DejaVuSans-105"/>
      <path d="M 18.3125 70.21875 
L 18.3125 54.6875 
L 36.8125 54.6875 
L 36.8125 47.703125 
L 18.3125 47.703125 
L 18.3125 18.015625 
Q 18.3125 11.328125 20.140625 9.421875 
Q 21.96875 7.515625 27.59375 7.515625 
L 36.8125 7.515625 
L 36.8125 0 
L 27.59375 0 
Q 17.1875 0 13.234375 3.875 
Q 9.28125 7.765625 9.28125 18.015625 
L 9.28125 47.703125 
L 2.6875 47.703125 
L 2.6875 54.6875 
L 9.28125 54.6875 
L 9.28125 70.21875 
z
" id="DejaVuSans-116"/>
      <path d="M 32.171875 -5.078125 
Q 28.375 -14.84375 24.75 -17.8125 
Q 21.140625 -20.796875 15.09375 -20.796875 
L 7.90625 -20.796875 
L 7.90625 -13.28125 
L 13.1875 -13.28125 
Q 16.890625 -13.28125 18.9375 -11.515625 
Q 21 -9.765625 23.484375 -3.21875 
L 25.09375 0.875 
L 2.984375 54.6875 
L 12.5 54.6875 
L 29.59375 11.921875 
L 46.6875 54.6875 
L 56.203125 54.6875 
z
" id="DejaVuSans-121"/>
     </defs>
     <g style="fill:#262626;" transform="translate(26.077969 100.483828)rotate(-90)scale(0.13 -0.13)">
      <use xlink:href="#DejaVuSans-68"/>
      <use x="77.001953" xlink:href="#DejaVuSans-101"/>
      <use x="138.525391" xlink:href="#DejaVuSans-110"/>
      <use x="201.904297" xlink:href="#DejaVuSans-115"/>
      <use x="254.003906" xlink:href="#DejaVuSans-105"/>
      <use x="281.787109" xlink:href="#DejaVuSans-116"/>
      <use x="320.996094" xlink:href="#DejaVuSans-121"/>
     </g>
    </g>
   </g>
   <g id="LineCollection_1">
    <path clip-path="url(#pbd7b2a0a83)" d="M 82.044098 130.78625 
L 82.044098 114.282172 
" style="fill:none;stroke:#add8e6;stroke-opacity:0.7;stroke-width:1.5;"/>
    <path clip-path="url(#pbd7b2a0a83)" d="M 120.704511 130.78625 
L 120.704511 114.282172 
" style="fill:none;stroke:#add8e6;stroke-opacity:0.7;stroke-width:1.5;"/>
    <path clip-path="url(#pbd7b2a0a83)" d="M 118.90513 130.78625 
L 118.90513 114.282172 
" style="fill:none;stroke:#add8e6;stroke-opacity:0.7;stroke-width:1.5;"/>
    <path clip-path="url(#pbd7b2a0a83)" d="M 111.069332 130.78625 
L 111.069332 114.282172 
" style="fill:none;stroke:#add8e6;stroke-opacity:0.7;stroke-width:1.5;"/>
    <path clip-path="url(#pbd7b2a0a83)" d="M 127.667426 130.78625 
L 127.667426 114.282172 
" style="fill:none;stroke:#add8e6;stroke-opacity:0.7;stroke-width:1.5;"/>
    <path clip-path="url(#pbd7b2a0a83)" d="M 123.654586 130.78625 
L 123.654586 114.282172 
" style="fill:none;stroke:#add8e6;stroke-opacity:0.7;stroke-width:1.5;"/>
    <path clip-path="url(#pbd7b2a0a83)" d="M 127.097359 130.78625 
L 127.097359 114.282172 
" style="fill:none;stroke:#add8e6;stroke-opacity:0.7;stroke-width:1.5;"/>
    <path clip-path="url(#pbd7b2a0a83)" d="M 123.654586 130.78625 
L 123.654586 114.282172 
" style="fill:none;stroke:#add8e6;stroke-opacity:0.7;stroke-width:1.5;"/>
    <path clip-path="url(#pbd7b2a0a83)" d="M 124.633095 130.78625 
L 124.633095 114.282172 
" style="fill:none;stroke:#add8e6;stroke-opacity:0.7;stroke-width:1.5;"/>
    <path clip-path="url(#pbd7b2a0a83)" d="M 106.417352 130.78625 
L 106.417352 114.282172 
" style="fill:none;stroke:#add8e6;stroke-opacity:0.7;stroke-width:1.5;"/>
    <path clip-path="url(#pbd7b2a0a83)" d="M 112.820924 130.78625 
L 112.820924 114.282172 
" style="fill:none;stroke:#add8e6;stroke-opacity:0.7;stroke-width:1.5;"/>
    <path clip-path="url(#pbd7b2a0a83)" d="M 114.992876 130.78625 
L 114.992876 114.282172 
" style="fill:none;stroke:#add8e6;stroke-opacity:0.7;stroke-width:1.5;"/>
    <path clip-path="url(#pbd7b2a0a83)" d="M 116.692451 130.78625 
L 116.692451 114.282172 
" style="fill:none;stroke:#add8e6;stroke-opacity:0.7;stroke-width:1.5;"/>
    <path clip-path="url(#pbd7b2a0a83)" d="M 105.812137 130.78625 
L 105.812137 114.282172 
" style="fill:none;stroke:#add8e6;stroke-opacity:0.7;stroke-width:1.5;"/>
    <path clip-path="url(#pbd7b2a0a83)" d="M 118.156422 130.78625 
L 118.156422 114.282172 
" style="fill:none;stroke:#add8e6;stroke-opacity:0.7;stroke-width:1.5;"/>
    <path clip-path="url(#pbd7b2a0a83)" d="M 113.299518 130.78625 
L 113.299518 114.282172 
" style="fill:none;stroke:#add8e6;stroke-opacity:0.7;stroke-width:1.5;"/>
    <path clip-path="url(#pbd7b2a0a83)" d="M 129.72026 130.78625 
L 129.72026 114.282172 
" style="fill:none;stroke:#add8e6;stroke-opacity:0.7;stroke-width:1.5;"/>
    <path clip-path="url(#pbd7b2a0a83)" d="M 128.4377 130.78625 
L 128.4377 114.282172 
" style="fill:none;stroke:#add8e6;stroke-opacity:0.7;stroke-width:1.5;"/>
    <path clip-path="url(#pbd7b2a0a83)" d="M 138.091309 130.78625 
L 138.091309 114.282172 
" style="fill:none;stroke:#add8e6;stroke-opacity:0.7;stroke-width:1.5;"/>
    <path clip-path="url(#pbd7b2a0a83)" d="M 130.800203 130.78625 
L 130.800203 114.282172 
" style="fill:none;stroke:#add8e6;stroke-opacity:0.7;stroke-width:1.5;"/>
    <path clip-path="url(#pbd7b2a0a83)" d="M 146.537321 130.78625 
L 146.537321 114.282172 
" style="fill:none;stroke:#add8e6;stroke-opacity:0.7;stroke-width:1.5;"/>
    <path clip-path="url(#pbd7b2a0a83)" d="M 147.880949 130.78625 
L 147.880949 114.282172 
" style="fill:none;stroke:#add8e6;stroke-opacity:0.7;stroke-width:1.5;"/>
    <path clip-path="url(#pbd7b2a0a83)" d="M 135.860295 130.78625 
L 135.860295 114.282172 
" style="fill:none;stroke:#add8e6;stroke-opacity:0.7;stroke-width:1.5;"/>
   </g>
   <g id="LineCollection_2">
    <path clip-path="url(#pbd7b2a0a83)" d="M 94.432954 130.78625 
L 94.432954 114.282172 
" style="fill:none;stroke:#f08080;stroke-opacity:0.7;stroke-width:1.5;"/>
    <path clip-path="url(#pbd7b2a0a83)" d="M 112.189862 130.78625 
L 112.189862 114.282172 
" style="fill:none;stroke:#f08080;stroke-opacity:0.7;stroke-width:1.5;"/>
    <path clip-path="url(#pbd7b2a0a83)" d="M 104.795422 130.78625 
L 104.795422 114.282172 
" style="fill:none;stroke:#f08080;stroke-opacity:0.7;stroke-width:1.5;"/>
    <path clip-path="url(#pbd7b2a0a83)" d="M 108.472618 130.78625 
L 108.472618 114.282172 
" style="fill:none;stroke:#f08080;stroke-opacity:0.7;stroke-width:1.5;"/>
    <path clip-path="url(#pbd7b2a0a83)" d="M 105.747507 130.78625 
L 105.747507 114.282172 
" style="fill:none;stroke:#f08080;stroke-opacity:0.7;stroke-width:1.5;"/>
    <path clip-path="url(#pbd7b2a0a83)" d="M 128.163323 130.78625 
L 128.163323 114.282172 
" style="fill:none;stroke:#f08080;stroke-opacity:0.7;stroke-width:1.5;"/>
    <path clip-path="url(#pbd7b2a0a83)" d="M 105.812137 130.78625 
L 105.812137 114.282172 
" style="fill:none;stroke:#f08080;stroke-opacity:0.7;stroke-width:1.5;"/>
    <path clip-path="url(#pbd7b2a0a83)" d="M 103.476487 130.78625 
L 103.476487 114.282172 
" style="fill:none;stroke:#f08080;stroke-opacity:0.7;stroke-width:1.5;"/>
    <path clip-path="url(#pbd7b2a0a83)" d="M 140.26919 130.78625 
L 140.26919 114.282172 
" style="fill:none;stroke:#f08080;stroke-opacity:0.7;stroke-width:1.5;"/>
    <path clip-path="url(#pbd7b2a0a83)" d="M 153.067037 130.78625 
L 153.067037 114.282172 
" style="fill:none;stroke:#f08080;stroke-opacity:0.7;stroke-width:1.5;"/>
    <path clip-path="url(#pbd7b2a0a83)" d="M 146.537321 130.78625 
L 146.537321 114.282172 
" style="fill:none;stroke:#f08080;stroke-opacity:0.7;stroke-width:1.5;"/>
    <path clip-path="url(#pbd7b2a0a83)" d="M 138.040182 130.78625 
L 138.040182 114.282172 
" style="fill:none;stroke:#f08080;stroke-opacity:0.7;stroke-width:1.5;"/>
    <path clip-path="url(#pbd7b2a0a83)" d="M 138.091309 130.78625 
L 138.091309 114.282172 
" style="fill:none;stroke:#f08080;stroke-opacity:0.7;stroke-width:1.5;"/>
    <path clip-path="url(#pbd7b2a0a83)" d="M 146.537321 130.78625 
L 146.537321 114.282172 
" style="fill:none;stroke:#f08080;stroke-opacity:0.7;stroke-width:1.5;"/>
    <path clip-path="url(#pbd7b2a0a83)" d="M 161.988701 130.78625 
L 161.988701 114.282172 
" style="fill:none;stroke:#f08080;stroke-opacity:0.7;stroke-width:1.5;"/>
    <path clip-path="url(#pbd7b2a0a83)" d="M 163.839464 130.78625 
L 163.839464 114.282172 
" style="fill:none;stroke:#f08080;stroke-opacity:0.7;stroke-width:1.5;"/>
    <path clip-path="url(#pbd7b2a0a83)" d="M 154.696023 130.78625 
L 154.696023 114.282172 
" style="fill:none;stroke:#f08080;stroke-opacity:0.7;stroke-width:1.5;"/>
   </g>
   <g id="LineCollection_3">
    <path clip-path="url(#pbd7b2a0a83)" d="M 146.181374 130.78625 
L 146.181374 114.282172 
" style="fill:none;stroke:#32cd32;stroke-opacity:0.7;stroke-width:1.5;"/>
    <path clip-path="url(#pbd7b2a0a83)" d="M 142.124215 130.78625 
L 142.124215 114.282172 
" style="fill:none;stroke:#32cd32;stroke-opacity:0.7;stroke-width:1.5;"/>
    <path clip-path="url(#pbd7b2a0a83)" d="M 133.773197 130.78625 
L 133.773197 114.282172 
" style="fill:none;stroke:#32cd32;stroke-opacity:0.7;stroke-width:1.5;"/>
    <path clip-path="url(#pbd7b2a0a83)" d="M 170.39904 130.78625 
L 170.39904 114.282172 
" style="fill:none;stroke:#32cd32;stroke-opacity:0.7;stroke-width:1.5;"/>
    <path clip-path="url(#pbd7b2a0a83)" d="M 169.126919 130.78625 
L 169.126919 114.282172 
" style="fill:none;stroke:#32cd32;stroke-opacity:0.7;stroke-width:1.5;"/>
    <path clip-path="url(#pbd7b2a0a83)" d="M 158.624606 130.78625 
L 158.624606 114.282172 
" style="fill:none;stroke:#32cd32;stroke-opacity:0.7;stroke-width:1.5;"/>
   </g>
   <g id="line2d_10">
    <path clip-path="url(#pbd7b2a0a83)" d="M 59.23882 130.715149 
L 63.159081 130.493815 
L 65.959267 130.103912 
L 68.199416 129.567389 
L 70.439565 128.790014 
L 73.239751 127.512325 
L 77.720049 125.329154 
L 79.40016 124.732746 
L 81.080272 124.375219 
L 82.760383 124.287195 
L 84.440495 124.447141 
L 87.240681 125.02793 
L 89.48083 125.385789 
L 90.600905 125.382195 
L 91.720979 125.181992 
L 92.841053 124.731735 
L 93.961128 123.98303 
L 95.081202 122.894634 
L 96.201277 121.434284 
L 97.321351 119.580229 
L 98.441426 117.322437 
L 99.5615 114.663398 
L 101.241612 109.959602 
L 102.921723 104.495271 
L 105.161872 96.313158 
L 111.882319 70.675801 
L 113.562431 65.217194 
L 115.242542 60.515249 
L 116.362617 57.867823 
L 117.482691 55.649403 
L 118.602766 53.889396 
L 119.72284 52.614448 
L 120.842914 51.848653 
L 121.402952 51.663364 
L 121.962989 51.612834 
L 122.523026 51.698868 
L 123.083063 51.922798 
L 123.643101 52.285385 
L 124.763175 53.426104 
L 125.883249 55.11183 
L 127.003324 57.318099 
L 128.123398 60.003232 
L 129.80351 64.79437 
L 132.043659 72.17621 
L 136.523957 87.483572 
L 138.204068 92.556778 
L 139.88418 97.023707 
L 141.564292 100.878686 
L 143.244403 104.206485 
L 145.484552 108.068848 
L 149.404813 114.166268 
L 153.88511 120.797988 
L 156.125259 123.713918 
L 157.805371 125.574735 
L 159.485483 127.104925 
L 161.165594 128.297525 
L 162.845706 129.17797 
L 164.525818 129.793648 
L 166.205929 130.201548 
L 168.446078 130.517949 
L 170.686227 130.673117 
L 170.686227 130.673117 
" style="fill:none;stroke:#add8e6;stroke-linecap:round;stroke-width:1.5;"/>
   </g>
   <g id="line2d_11">
    <path clip-path="url(#pbd7b2a0a83)" d="M 54.845621 130.713873 
L 60.818734 130.505619 
L 64.551929 130.187309 
L 67.538486 129.739464 
L 70.525042 129.032393 
L 72.764959 128.273304 
L 75.004876 127.268752 
L 77.244793 125.975712 
L 79.484711 124.358007 
L 81.724628 122.392744 
L 83.964545 120.077301 
L 86.204462 117.435892 
L 89.191019 113.508537 
L 96.657409 103.295676 
L 98.897327 100.717792 
L 100.390605 99.260333 
L 101.883883 98.051512 
L 103.377161 97.115396 
L 104.870439 96.46521 
L 106.363717 96.102161 
L 107.856995 96.014949 
L 109.350274 96.180044 
L 110.843552 96.56272 
L 113.083469 97.446092 
L 120.54986 100.881873 
L 122.043138 101.279012 
L 123.536416 101.493787 
L 125.029694 101.510033 
L 126.522972 101.323383 
L 128.01625 100.940973 
L 129.509529 100.380525 
L 131.749446 99.266889 
L 134.736002 97.465534 
L 138.469197 95.180416 
L 140.709115 94.041597 
L 142.202393 93.454488 
L 143.695671 93.038419 
L 145.188949 92.815268 
L 146.682227 92.800702 
L 148.175505 93.004241 
L 149.668784 93.429548 
L 151.162062 94.074844 
L 152.65534 94.933434 
L 154.148618 95.994261 
L 156.388535 97.931303 
L 158.628452 100.225945 
L 161.615009 103.7096 
L 166.094843 109.429594 
L 170.574678 115.118789 
L 173.561234 118.585281 
L 175.801151 120.914258 
L 178.041068 122.969901 
L 180.280986 124.734634 
L 182.520903 126.207887 
L 184.76082 127.403664 
L 187.000737 128.347086 
L 189.240654 129.070457 
L 192.227211 129.754263 
L 195.213767 130.19335 
L 198.946962 130.508533 
L 203.426797 130.684906 
L 203.426797 130.684906 
" style="fill:none;stroke:#f08080;stroke-linecap:round;stroke-width:1.5;"/>
   </g>
   <g id="line2d_12">
    <path clip-path="url(#pbd7b2a0a83)" d="M 102.283262 130.572803 
L 105.286449 130.292623 
L 107.789106 129.849812 
L 109.79123 129.281061 
L 111.793355 128.445374 
L 113.294949 127.595087 
L 114.796543 126.513722 
L 116.298136 125.166802 
L 117.79973 123.523686 
L 119.301324 121.560644 
L 120.802917 119.264045 
L 122.304511 116.63337 
L 124.306636 112.634705 
L 126.809292 106.974887 
L 130.813542 97.115502 
L 133.816729 89.958496 
L 135.818854 85.731939 
L 137.320448 82.991169 
L 138.822041 80.687196 
L 140.323635 78.856259 
L 141.324697 77.903974 
L 142.32576 77.162018 
L 143.326822 76.620431 
L 144.327885 76.264091 
L 145.829478 76.032776 
L 147.331072 76.091723 
L 149.333197 76.4615 
L 154.338509 77.569426 
L 156.340634 77.740589 
L 159.343821 77.71249 
L 161.846477 77.744621 
L 163.348071 77.979099 
L 164.849665 78.4989 
L 165.850727 79.050042 
L 166.85179 79.791886 
L 167.852852 80.741881 
L 168.853914 81.911352 
L 170.355508 84.085086 
L 171.857102 86.746589 
L 173.358695 89.846311 
L 175.36082 94.518815 
L 178.864539 103.447643 
L 181.867726 110.898918 
L 183.869851 115.341372 
L 185.871976 119.184948 
L 187.37357 121.631493 
L 188.875163 123.69993 
L 190.376757 125.406551 
L 191.878351 126.781287 
L 193.379944 127.862832 
L 194.881538 128.694107 
L 196.383132 129.318465 
L 198.385256 129.899205 
L 200.887913 130.336678 
L 201.888975 130.448999 
L 201.888975 130.448999 
" style="fill:none;stroke:#32cd32;stroke-linecap:round;stroke-width:1.5;"/>
   </g>
   <g id="patch_3">
    <path d="M 47.416563 130.78625 
L 47.416563 20.759063 
" style="fill:none;stroke:#262626;stroke-linecap:square;stroke-linejoin:miter;stroke-width:0.8;"/>
   </g>
   <g id="patch_4">
    <path d="M 47.416563 130.78625 
L 210.855856 130.78625 
" style="fill:none;stroke:#262626;stroke-linecap:square;stroke-linejoin:miter;stroke-width:0.8;"/>
   </g>
  </g>
 </g>
 <defs>
  <clipPath id="pbd7b2a0a83">
   <rect height="110.027187" width="163.439293" x="47.416563" y="20.759063"/>
  </clipPath>
 </defs>
</svg>
